# xmcd CD database file
#
# Track frame offsets:
#	150
#	28495
#	61249
#	98123
#	117216
#	158893
#	181891
#
# Disc length: 2714 seconds
#
# Revision: 0
# Processed by: cddbd v1.4b41PL1 Copyright (c) Steve Scherf et al.
# Submitted via: Feurio! 1.61 - http://www.feurio.com
#
DISCID=570a9807
DTITLE=Foghat - Road Cases [CD2/2)
DYEAR=1900
DGENRE=
TTITLE0=It'ts Too Late
TTITLE1=Stone Blue
TTITLE2=It Hurts Me Too
TTITLE3=Bad Bad Lovin'
TTITLE4=Slow Ride
TTITLE5=Angel Of Mercy (Bonus Studio Track)
TTITLE6=Tear You Down (Bonus Studio Track)
EXTD=
EXTT0=
EXTT1=
EXTT2=
EXTT3=
EXTT4=
EXTT5=
EXTT6=
PLAYORDER=
